<svg xmlns="http://www.w3.org/2000/svg" width="200" height="117" viewBox="0 0 200 117" fill="none"><g clip-path="url(#clip0)"><path fill-rule="evenodd" clip-rule="evenodd" d="M31.1839 87.9596C30.9421 87.9966 30.7002 88.0238 30.4584 88.0436C30.2166 88.0608 29.9674 88.0806 29.7058 88.1004V93.2565H25V72.8777H29.7083C30.8779 72.8975 31.9736 73.1099 32.9952 73.5198C34.0168 73.9298 34.9125 74.478 35.6825 75.1597C36.4523 75.8462 37.0569 76.6464 37.4937 77.5576C37.9305 78.464 38.1476 79.4395 38.1476 80.4791C38.1476 81.5707 37.9156 82.5882 37.4517 83.5267C36.9878 84.4651 36.3363 85.2726 35.5023 85.9617L40.0156 93.2565H34.4708L31.1839 87.9596ZM29.7083 83.3612C30.2092 83.3414 30.6879 83.255 31.142 83.097C31.596 82.9389 31.9958 82.729 32.3388 82.4697C32.6818 82.2103 32.9507 81.9066 33.1457 81.5633C33.3406 81.2201 33.4393 80.8521 33.4393 80.4619C33.4393 80.0716 33.3406 79.7087 33.1457 79.3752C32.9507 79.0394 32.6818 78.743 32.3388 78.4837C31.9958 78.2244 31.596 78.0145 31.142 77.8565C30.6879 77.6984 30.2092 77.6095 29.7083 77.5922V83.3612Z" fill="#00C194"></path><path fill-rule="evenodd" clip-rule="evenodd" d="M52.8601 77.1083H45.1682V79.9369H51.4074V84.2442H45.1682V87.1992H52.8601V91.5062H40.8643V72.8258L52.8601 72.801V77.1083Z" fill="#00C194"></path><path fill-rule="evenodd" clip-rule="evenodd" d="M66.3063 91.5062L65.5687 89.2377H59.6858L58.9211 91.5062H54.3624L60.728 72.801H64.8017L70.838 91.5062H66.3063ZM61.1611 84.9327H64.1904L62.713 80.3974L61.1611 84.9327Z" fill="#00C194"></path><path fill-rule="evenodd" clip-rule="evenodd" d="M83.7744 91.5062H72.6471V72.7762H76.9509V87.1993H83.7744V91.5062Z" fill="#00C194"></path><path fill-rule="evenodd" clip-rule="evenodd" d="M102.111 77.1083H94.419V79.9369H100.658V84.2442H94.419V87.1992H102.111V91.5062H90.1152V72.8258L102.111 72.801V77.1083Z" fill="#00C194"></path><path fill-rule="evenodd" clip-rule="evenodd" d="M110.412 91.8629C109.819 91.8629 109.227 91.7821 108.641 91.6213C108.055 91.459 107.5 91.2086 106.974 90.8699C106.058 90.2761 105.343 89.5064 104.836 88.5627C104.326 87.6191 104.071 86.5874 104.071 85.4655H108.375C108.375 85.9757 108.486 86.3707 108.707 86.6507C108.928 86.9305 109.122 87.1224 109.293 87.2241C109.598 87.4273 109.929 87.5379 110.286 87.5559C110.642 87.5739 110.989 87.504 111.33 87.3527C111.567 87.2511 111.759 87.1224 111.903 86.9712C112.047 86.8177 112.158 86.6687 112.235 86.5242C112.312 86.3798 112.359 86.2398 112.374 86.1043C112.393 85.9689 112.399 85.8583 112.399 85.7724C112.399 85.6867 112.39 85.5761 112.374 85.4407C112.359 85.3052 112.312 85.1607 112.235 85.0072C112.158 84.8537 112.047 84.7047 111.903 84.5602C111.759 84.4158 111.567 84.2848 111.33 84.1652C111.143 84.0794 110.944 84.0049 110.732 83.9349C110.52 83.8649 110.294 83.7904 110.058 83.7046C109.634 83.5692 109.191 83.4157 108.734 83.2464C108.276 83.077 107.818 82.8468 107.358 82.5579C106.764 82.1831 106.263 81.7158 105.856 81.1559C105.447 80.5961 105.156 79.9911 104.978 79.3477C104.8 78.702 104.741 78.0361 104.8 77.3476C104.858 76.659 105.05 76.0021 105.373 75.3723C105.677 74.7943 106.061 74.2931 106.518 73.8687C106.976 73.4443 107.486 73.108 108.046 72.8619C108.605 72.6159 109.21 72.4668 109.855 72.4149C110.5 72.363 111.154 72.424 111.815 72.5933C112.46 72.7468 113.042 72.9883 113.563 73.3202C114.088 73.6521 114.54 74.0516 114.917 74.5189C115.298 74.9862 115.591 75.5077 115.791 76.0856C115.995 76.6636 116.097 77.2662 116.097 77.8961H111.815C111.815 77.5056 111.691 77.2347 111.445 77.0812C111.199 76.9277 110.983 76.8261 110.795 76.7764C110.762 76.7764 110.681 76.7629 110.554 76.738C110.427 76.7132 110.283 76.7132 110.121 76.738C109.959 76.7629 109.794 76.8238 109.625 76.9164C109.456 77.0089 109.32 77.1579 109.216 77.3633C109.081 77.6343 109.056 77.9209 109.139 78.2167C109.225 78.5146 109.395 78.7472 109.65 78.9165C109.887 79.052 110.15 79.1761 110.439 79.2867C110.728 79.3974 111.032 79.5034 111.355 79.6051C111.643 79.6908 111.937 79.7834 112.232 79.8849C112.53 79.9865 112.826 80.1062 113.132 80.2417C114.245 80.7518 115.119 81.499 115.751 82.4833C116.383 83.4676 116.701 84.5648 116.701 85.7702C116.701 86.9599 116.383 88.048 115.751 89.0323C115.119 90.0166 114.245 90.7661 113.132 91.2742C112.695 91.4774 112.246 91.6261 111.788 91.7213C111.33 91.8181 110.87 91.8629 110.412 91.8629Z" fill="#00C194"></path><path fill-rule="evenodd" clip-rule="evenodd" d="M129.79 72.7242V77.0315H126.201V91.5062H121.898V77.0315H118.332V72.7242H129.79Z" fill="#00C194"></path><path fill-rule="evenodd" clip-rule="evenodd" d="M142.856 91.5062L142.118 89.2377H136.235L135.471 91.5062H130.912L137.277 72.801H141.351L147.385 91.5062H142.856ZM137.713 84.9327H140.742L139.265 80.3974L137.713 84.9327Z" fill="#00C194"></path><path fill-rule="evenodd" clip-rule="evenodd" d="M159.918 72.7242V77.0315H156.327V91.5062H152.023V77.0315H148.459V72.7242H159.918Z" fill="#00C194"></path><path fill-rule="evenodd" clip-rule="evenodd" d="M174 77.1083H166.31V79.9369H172.549V84.2442H166.31V87.1992H174V91.5062H162.006V72.8258L174 72.801V77.1083Z" fill="#00C194"></path><path fill-rule="evenodd" clip-rule="evenodd" d="M27.9008 106.973L28.7242 104.959L26.297 99.8118H28.1038L29.5633 102.898L30.8107 99.8118H32.5814L29.6715 106.973H27.9008Z" fill="#00C194"></path><path fill-rule="evenodd" clip-rule="evenodd" d="M40.7402 99.8589C41.2297 99.8589 41.6899 99.9517 42.1207 100.139C42.5516 100.327 42.9283 100.58 43.2508 100.898C43.5734 101.216 43.8261 101.593 44.0133 102.024C44.2005 102.455 44.2929 102.918 44.2929 103.408C44.2929 103.898 44.2005 104.36 44.0133 104.792C43.8261 105.223 43.5734 105.6 43.2508 105.919C42.9283 106.237 42.5516 106.492 42.1207 106.677C41.6899 106.864 41.2297 106.957 40.7402 106.957C40.2508 106.957 39.7906 106.864 39.3598 106.677C38.9289 106.49 38.5545 106.237 38.2342 105.919C37.9161 105.6 37.6635 105.223 37.4763 104.792C37.2891 104.36 37.1965 103.898 37.1965 103.408C37.1965 102.918 37.2891 102.458 37.4763 102.024C37.6635 101.593 37.9139 101.216 38.2342 100.898C38.5522 100.58 38.9289 100.324 39.3598 100.139C39.7906 99.9541 40.2508 99.8589 40.7402 99.8589ZM40.7447 105.327C41.0087 105.327 41.2568 105.277 41.4892 105.178C41.7215 105.079 41.9245 104.941 42.0982 104.767C42.2718 104.593 42.4094 104.39 42.5087 104.157C42.608 103.925 42.6576 103.677 42.6576 103.413C42.6576 103.149 42.608 102.9 42.5087 102.667C42.4094 102.435 42.2718 102.232 42.0982 102.058C41.9245 101.884 41.7215 101.747 41.4892 101.647C41.2568 101.547 41.0087 101.498 40.7447 101.498C40.4809 101.498 40.2327 101.547 40.0004 101.647C39.7681 101.747 39.565 101.884 39.3913 102.058C39.2176 102.232 39.08 102.435 38.9808 102.667C38.8815 102.9 38.8319 103.149 38.8319 103.413C38.8319 103.677 38.8815 103.925 38.9808 104.157C39.08 104.39 39.2176 104.593 39.3913 104.767C39.565 104.941 39.7681 105.079 40.0004 105.178C40.2327 105.277 40.4809 105.327 40.7447 105.327Z" fill="#00C194"></path><path fill-rule="evenodd" clip-rule="evenodd" d="M51.6172 106.973C51.2563 106.973 50.9134 106.907 50.5932 106.774C50.2706 106.641 49.9841 106.454 49.7337 106.207C49.4765 105.95 49.278 105.659 49.1382 105.335C49.0006 105.013 48.9262 104.668 48.9216 104.3V99.8589H50.5548V104.291C50.5548 104.575 50.6608 104.824 50.8728 105.036C51.0849 105.236 51.3375 105.335 51.6262 105.335C51.7683 105.335 51.9037 105.307 52.0323 105.248C52.1609 105.189 52.2737 105.112 52.3706 105.016C52.4676 104.918 52.5421 104.805 52.5939 104.676C52.6458 104.548 52.6707 104.408 52.6707 104.261V99.8589H54.3037V104.253C54.3105 104.62 54.2451 104.968 54.1052 105.297C53.9677 105.627 53.7759 105.914 53.5345 106.158C53.2932 106.403 53.009 106.598 52.6842 106.742C52.3594 106.886 52.0119 106.963 51.6443 106.97L51.6172 106.973Z" fill="#00C194"></path><path fill-rule="evenodd" clip-rule="evenodd" d="M61.5604 105.132C61.4769 105.146 61.3934 105.156 61.3099 105.162C61.2265 105.169 61.1385 105.176 61.0483 105.183V106.973H59.4152V99.8998H61.0483C61.4543 99.907 61.8355 99.9814 62.1897 100.124C62.5438 100.265 62.8551 100.455 63.1235 100.692C63.3919 100.932 63.5995 101.209 63.7528 101.525C63.904 101.839 63.9806 102.178 63.9806 102.539C63.9806 102.918 63.8995 103.27 63.7394 103.597C63.5791 103.923 63.3536 104.205 63.0626 104.442L64.6281 106.975H62.704L61.5604 105.132ZM61.0483 103.537C61.222 103.53 61.3889 103.501 61.5468 103.444C61.7047 103.39 61.8423 103.318 61.9619 103.227C62.0814 103.137 62.1739 103.034 62.2415 102.914C62.3092 102.794 62.3431 102.667 62.3431 102.532C62.3431 102.397 62.3092 102.271 62.2415 102.155C62.1739 102.04 62.0814 101.936 61.9619 101.846C61.8423 101.755 61.7047 101.683 61.5468 101.629C61.3889 101.575 61.222 101.543 61.0483 101.536V103.537Z" fill="#00C194"></path><path fill-rule="evenodd" clip-rule="evenodd" d="M75.1892 99.8414V101.475H73.8268V106.973H72.1914V101.475H70.838V99.8414H75.1892Z" fill="#00C194"></path><path fill-rule="evenodd" clip-rule="evenodd" d="M84.0789 106.973L83.7992 106.112H81.5661L81.2751 106.973H79.545L81.9631 99.8702H83.5105L85.8023 106.973H84.0789ZM82.1255 104.476H83.2759L82.7143 102.754L82.1255 104.476Z" fill="#00C194"></path><path fill-rule="evenodd" clip-rule="evenodd" d="M96.1875 102.995V106.973H94.5431V106.798C94.3626 106.864 94.1777 106.91 93.9882 106.938C93.7987 106.968 93.6092 106.982 93.422 106.982C92.9641 106.982 92.5175 106.894 92.0776 106.72C91.64 106.546 91.2453 106.284 90.8979 105.936C90.5505 105.589 90.2912 105.196 90.1197 104.76C89.9483 104.325 89.8625 103.877 89.8625 103.419C89.8625 102.961 89.9483 102.512 90.1197 102.074C90.2912 101.636 90.5505 101.241 90.8979 100.893C91.2453 100.545 91.64 100.284 92.0776 100.11C92.5153 99.9358 92.9641 99.8478 93.422 99.8478C93.8799 99.8478 94.3266 99.9358 94.7664 100.11C95.2041 100.284 95.5988 100.545 95.9462 100.893L94.7867 102.054C94.5995 101.866 94.3875 101.726 94.1483 101.634C93.9093 101.541 93.6679 101.494 93.422 101.494C93.1761 101.494 92.9348 101.541 92.698 101.634C92.4589 101.726 92.2468 101.868 92.0596 102.054C91.8724 102.241 91.7303 102.453 91.6333 102.692C91.5363 102.932 91.4889 103.174 91.4889 103.417C91.4889 103.663 91.5363 103.905 91.6333 104.141C91.7303 104.381 91.8724 104.593 92.0596 104.78C92.2265 104.948 92.416 105.079 92.6257 105.173C92.8355 105.266 93.0521 105.323 93.2732 105.338C93.4965 105.354 93.7153 105.334 93.9363 105.275C94.1551 105.216 94.3581 105.12 94.5453 104.984V104.624H93.1243V102.99H96.1875V102.995Z" fill="#00C194"></path><path fill-rule="evenodd" clip-rule="evenodd" d="M105.321 106.973H101.094V99.8589H102.729V105.335H105.321V106.973Z" fill="#00C194"></path><path fill-rule="evenodd" clip-rule="evenodd" d="M111.754 106.973H110.119V99.8589H111.754V106.973Z" fill="#00C194"></path><path fill-rule="evenodd" clip-rule="evenodd" d="M120.944 99.8685H122.577V106.973H120.809L118.487 102.83V106.973H116.854V99.8885H118.632L120.944 104.02V99.8685Z" fill="#00C194"></path><path fill-rule="evenodd" clip-rule="evenodd" d="M132.485 101.659H129.29V102.834H131.883V104.622H129.29V105.849H132.485V107.64H127.503V99.8808L132.485 99.8685V101.659Z" fill="#00C194"></path><path fill-rule="evenodd" clip-rule="evenodd" d="M142.195 99.8685H143.828V106.973H142.195V104.291H140.144V106.973H138.511V99.8685H140.144V102.656H142.195V99.8685Z" fill="#00C194"></path><path fill-rule="evenodd" clip-rule="evenodd" d="M153.23 101.505H150.311V102.579H152.679V104.214H150.311V105.335H153.23V106.973H148.676V99.8797L153.23 99.8685V101.505Z" fill="#00C194"></path><path fill-rule="evenodd" clip-rule="evenodd" d="M160.35 105.132C160.267 105.146 160.184 105.156 160.098 105.162C160.015 105.169 159.927 105.176 159.836 105.183V106.973H158.204V99.8998H159.836C160.242 99.907 160.624 99.9814 160.978 100.124C161.332 100.265 161.643 100.455 161.912 100.692C162.18 100.932 162.388 101.209 162.541 101.525C162.692 101.839 162.769 102.178 162.769 102.539C162.769 102.918 162.688 103.27 162.528 103.597C162.368 103.923 162.142 104.205 161.851 104.442L163.416 106.975H161.492L160.35 105.132ZM159.839 103.537C160.012 103.53 160.179 103.501 160.337 103.444C160.495 103.39 160.632 103.318 160.753 103.227C160.872 103.137 160.964 103.034 161.032 102.914C161.099 102.794 161.133 102.667 161.133 102.532C161.133 102.397 161.099 102.271 161.032 102.155C160.964 102.04 160.872 101.936 160.753 101.846C160.632 101.755 160.495 101.683 160.337 101.629C160.179 101.575 160.012 101.543 159.839 101.536V103.537Z" fill="#00C194"></path><path fill-rule="evenodd" clip-rule="evenodd" d="M172.712 101.505H169.791V102.579H172.162V104.214H169.791V105.335H172.712V106.973H168.158V99.8797L172.712 99.8685V101.505Z" fill="#00C194"></path><path fill-rule="evenodd" clip-rule="evenodd" d="M48.4999 60.3419H45.9509V61.281H48.0194V62.7078H45.9509V63.6875H48.4999V65.1143H44.5253V58.9242L48.4999 58.9152V60.3419Z" fill="#00C194"></path><path fill-rule="evenodd" clip-rule="evenodd" d="M51.5631 65.2339C51.3668 65.2339 51.1706 65.2068 50.9765 65.1526C50.7826 65.0984 50.5976 65.0149 50.424 64.9043C50.1194 64.7079 49.8826 64.4528 49.7157 64.139C49.5487 63.8252 49.463 63.4843 49.463 63.1118H50.8886C50.8886 63.2812 50.9247 63.4121 50.9991 63.5047C51.0713 63.5972 51.1368 63.6604 51.1932 63.6943C51.2947 63.762 51.4052 63.7981 51.5225 63.8049C51.6398 63.8116 51.757 63.7891 51.8676 63.7372C51.9466 63.7033 52.0097 63.6604 52.057 63.6107C52.1045 63.5611 52.1405 63.5114 52.1676 63.464C52.1924 63.4166 52.2082 63.3692 52.2149 63.324C52.2217 63.2789 52.224 63.2428 52.224 63.2134C52.224 63.1841 52.2217 63.148 52.2149 63.1028C52.2104 63.0577 52.1947 63.0103 52.1676 62.9584C52.1428 62.9087 52.1067 62.859 52.057 62.8116C52.0097 62.7642 51.9466 62.719 51.8676 62.6806C51.8067 62.6535 51.739 62.6265 51.6691 62.6039C51.5991 62.5813 51.5247 62.5565 51.4457 62.5272C51.3059 62.482 51.1593 62.4323 51.0059 62.3759C50.8548 62.3194 50.7014 62.2427 50.5503 62.1479C50.354 62.0237 50.1871 61.8702 50.0518 61.6828C49.9164 61.4978 49.8194 61.2968 49.7608 61.0824C49.7021 60.8679 49.6819 60.6466 49.7021 60.4187C49.7224 60.1906 49.7856 59.9716 49.8916 59.764C49.9931 59.5721 50.1194 59.4073 50.2706 59.2651C50.4216 59.1251 50.5908 59.0122 50.7758 58.931C50.9608 58.8497 51.1615 58.8 51.3758 58.7842C51.5902 58.7684 51.8067 58.7865 52.0255 58.8429C52.2398 58.8926 52.4315 58.9738 52.6052 59.0845C52.7789 59.1951 52.9277 59.326 53.0541 59.4818C53.1804 59.6376 53.2774 59.8091 53.3428 60.001C53.4105 60.1929 53.4443 60.3916 53.4443 60.6015H52.0255C52.0255 60.4728 51.9849 60.3825 51.9037 60.3306C51.8225 60.2809 51.7503 60.2471 51.6893 60.229C51.6781 60.229 51.6511 60.2245 51.6082 60.2154C51.5653 60.2065 51.5179 60.2065 51.4638 60.2154C51.4097 60.2245 51.3555 60.2426 51.2991 60.2742C51.2427 60.3057 51.1976 60.3554 51.1638 60.4209C51.1187 60.5112 51.1097 60.606 51.139 60.7031C51.1661 60.8024 51.2225 60.8792 51.3082 60.9356C51.3871 60.9807 51.4751 61.0214 51.5698 61.0575C51.6646 61.0937 51.7661 61.1297 51.8743 61.1637C51.9713 61.1907 52.0661 61.2223 52.1653 61.2562C52.2646 61.29 52.3616 61.3284 52.4631 61.3735C52.8308 61.5429 53.1217 61.7912 53.3316 62.1163C53.5413 62.4437 53.6473 62.8071 53.6473 63.2066C53.6473 63.6018 53.5413 63.9606 53.3316 64.288C53.1217 64.6153 52.833 64.8614 52.4631 65.0307C52.3187 65.0984 52.1698 65.1481 52.0164 65.1775C51.8653 65.2181 51.7142 65.2339 51.5631 65.2339Z" fill="#00C194"></path><path fill-rule="evenodd" clip-rule="evenodd" d="M58.2963 58.8903V60.3171H57.1076V65.1142H55.6797V60.3171H54.5V58.8903H58.2963Z" fill="#00C194"></path><path fill-rule="evenodd" clip-rule="evenodd" d="M60.6265 58.8903C61.037 58.9129 61.425 59.0122 61.7859 59.186C62.1491 59.3599 62.4648 59.5879 62.731 59.8701C62.9995 60.1522 63.2092 60.4774 63.3649 60.8498C63.5205 61.2223 63.5973 61.6174 63.5973 62.0418C63.5973 62.4594 63.5205 62.8477 63.3694 63.2112C63.2183 63.5746 63.0085 63.8929 62.74 64.1706C62.4739 64.446 62.1581 64.6672 61.7994 64.8343C61.4385 65.0013 61.0483 65.0939 60.6265 65.1165H59.2009V58.8813H60.6265V58.8903ZM60.6265 63.6785C60.8452 63.6559 61.0506 63.5972 61.2378 63.5046C61.4272 63.4121 61.5897 63.2924 61.7272 63.1502C61.8648 63.0057 61.9731 62.8387 62.0521 62.6468C62.131 62.4549 62.1693 62.2518 62.1693 62.0396C62.1693 61.8206 62.131 61.6106 62.0521 61.4097C61.9731 61.2088 61.8626 61.0327 61.7227 60.8769C61.5829 60.7212 61.4182 60.5947 61.2333 60.4977C61.0483 60.3984 60.8452 60.3396 60.6265 60.3171V63.6785Z" fill="#00C194"></path><path fill-rule="evenodd" clip-rule="evenodd" d="M136.246 58.8994H137.672V65.1142H136.246V61.1613L135.825 61.6851L134.717 60.7821L136.246 58.8994Z" fill="#00C194"></path><path d="M140.896 63.3828C140.614 63.3557 140.349 63.2766 140.102 63.1503C139.853 63.0238 139.639 62.8613 139.456 62.6649C139.273 62.4685 139.129 62.2404 139.025 61.9809C138.922 61.7213 138.87 61.4459 138.87 61.1524C138.87 60.8431 138.928 60.5519 139.048 60.2787C139.165 60.0056 139.325 59.7685 139.528 59.5653C139.732 59.3622 139.968 59.2019 140.241 59.0845C140.514 58.9671 140.805 58.9062 141.114 58.9062C141.423 58.9062 141.714 58.9648 141.983 59.0845C142.253 59.2019 142.491 59.3622 142.691 59.5653C142.894 59.7685 143.054 60.0056 143.171 60.2787C143.288 60.5519 143.349 60.8431 143.349 61.1524C143.349 61.4842 143.28 61.8048 143.138 62.1163L141.62 65.1143H140.025L140.896 63.3828ZM141.114 60.3351C141.001 60.3351 140.896 60.3554 140.799 60.3984C140.699 60.4413 140.614 60.5 140.537 60.5767C140.46 60.6535 140.401 60.7393 140.359 60.8385C140.316 60.9379 140.296 61.0418 140.296 61.1546C140.296 61.2675 140.316 61.3736 140.359 61.4707C140.401 61.57 140.46 61.6557 140.537 61.728C140.614 61.8003 140.699 61.859 140.799 61.9019C140.898 61.9447 141.001 61.965 141.114 61.965C141.34 61.965 141.532 61.886 141.687 61.728C141.845 61.57 141.924 61.3781 141.924 61.1546C141.924 61.0418 141.903 60.9356 141.861 60.8385C141.818 60.7393 141.762 60.6535 141.687 60.5767C141.615 60.5 141.529 60.4413 141.43 60.3984C141.333 60.3554 141.227 60.3351 141.114 60.3351Z" fill="#00C194"></path><path d="M140.896 63.3828C140.614 63.3557 140.349 63.2766 140.102 63.1503C139.853 63.0238 139.639 62.8613 139.456 62.6649C139.273 62.4685 139.129 62.2404 139.025 61.9809C138.922 61.7213 138.87 61.4459 138.87 61.1524C138.87 60.8431 138.928 60.5519 139.048 60.2787C139.165 60.0056 139.325 59.7685 139.528 59.5653C139.732 59.3622 139.968 59.2019 140.241 59.0845C140.514 58.9671 140.805 58.9062 141.114 58.9062C141.423 58.9062 141.714 58.9648 141.983 59.0845C142.253 59.2019 142.491 59.3622 142.691 59.5653C142.894 59.7685 143.054 60.0056 143.171 60.2787C143.288 60.5519 143.349 60.8431 143.349 61.1524C143.349 61.4842 143.28 61.8048 143.138 62.1163L141.62 65.1143H140.025L140.896 63.3828ZM141.114 60.3351C141.001 60.3351 140.896 60.3554 140.799 60.3984C140.699 60.4413 140.614 60.5 140.537 60.5767C140.46 60.6535 140.401 60.7393 140.359 60.8385C140.316 60.9379 140.296 61.0418 140.296 61.1546C140.296 61.2675 140.316 61.3736 140.359 61.4707C140.401 61.57 140.46 61.6557 140.537 61.728C140.614 61.8003 140.699 61.859 140.799 61.9019C140.898 61.9447 141.001 61.965 141.114 61.965C141.34 61.965 141.532 61.886 141.687 61.728C141.845 61.57 141.924 61.3781 141.924 61.1546C141.924 61.0418 141.903 60.9356 141.861 60.8385C141.818 60.7393 141.762 60.6535 141.687 60.5767C141.615 60.5 141.529 60.4413 141.43 60.3984C141.333 60.3554 141.227 60.3351 141.114 60.3351Z" fill="#00C194"></path><path fill-rule="evenodd" clip-rule="evenodd" d="M146.456 63.3828C146.174 63.3557 145.909 63.2766 145.662 63.1503C145.414 63.0238 145.199 62.8613 145.016 62.6649C144.834 62.4685 144.689 62.2404 144.586 61.9809C144.482 61.7213 144.43 61.4459 144.43 61.1524C144.43 60.8431 144.488 60.5519 144.609 60.2787C144.726 60.0056 144.886 59.7685 145.088 59.5653C145.292 59.3622 145.529 59.2019 145.801 59.0845C146.075 58.9671 146.365 58.9062 146.675 58.9062C146.984 58.9062 147.275 58.9648 147.543 59.0845C147.814 59.2019 148.048 59.3622 148.251 59.5653C148.455 59.7685 148.615 60.0056 148.732 60.2787C148.849 60.5519 148.91 60.8431 148.91 61.1524C148.91 61.4842 148.84 61.8048 148.698 62.1163L147.18 65.1143H145.585L146.456 63.3828ZM146.677 60.3351C146.564 60.3351 146.458 60.3554 146.361 60.3984C146.262 60.4413 146.176 60.5 146.099 60.5767C146.022 60.6535 145.964 60.7393 145.921 60.8385C145.878 60.9379 145.858 61.0418 145.858 61.1546C145.858 61.2675 145.878 61.3736 145.921 61.4707C145.964 61.57 146.022 61.6557 146.099 61.728C146.176 61.8003 146.262 61.859 146.361 61.9019C146.46 61.9447 146.564 61.965 146.677 61.965C146.902 61.965 147.094 61.886 147.25 61.728C147.408 61.57 147.487 61.3781 147.487 61.1546C147.487 61.0418 147.466 60.9356 147.424 60.8385C147.38 60.7393 147.324 60.6535 147.25 60.5767C147.178 60.5 147.092 60.4413 146.993 60.3984C146.893 60.3554 146.79 60.3351 146.677 60.3351Z" fill="#00C194"></path><path fill-rule="evenodd" clip-rule="evenodd" d="M152.018 63.3828C151.737 63.3557 151.472 63.2766 151.225 63.1503C150.976 63.0238 150.762 62.8613 150.579 62.6649C150.396 62.4685 150.252 62.2404 150.148 61.9809C150.045 61.7213 149.993 61.4459 149.993 61.1524C149.993 60.8431 150.051 60.5519 150.171 60.2787C150.288 60.0056 150.448 59.7685 150.651 59.5653C150.855 59.3622 151.091 59.2019 151.364 59.0845C151.637 58.9671 151.928 58.9062 152.237 58.9062C152.546 58.9062 152.837 58.9648 153.106 59.0845C153.376 59.2019 153.613 59.3622 153.814 59.5653C154.017 59.7685 154.177 60.0056 154.294 60.2787C154.411 60.5519 154.472 60.8431 154.472 61.1524C154.472 61.4842 154.402 61.8048 154.261 62.1163L152.743 65.1143H151.148L152.018 63.3828ZM152.237 60.3351C152.124 60.3351 152.018 60.3554 151.922 60.3984C151.822 60.4413 151.737 60.5 151.66 60.5767C151.583 60.6535 151.524 60.7393 151.482 60.8385C151.439 60.9379 151.418 61.0418 151.418 61.1546C151.418 61.2675 151.439 61.3736 151.482 61.4707C151.524 61.57 151.583 61.6557 151.66 61.728C151.737 61.8003 151.822 61.859 151.922 61.9019C152.021 61.9447 152.124 61.965 152.237 61.965C152.462 61.965 152.655 61.886 152.81 61.728C152.968 61.57 153.047 61.3781 153.047 61.1546C153.047 61.0418 153.026 60.9356 152.984 60.8385C152.941 60.7393 152.884 60.6535 152.81 60.5767C152.738 60.5 152.652 60.4413 152.553 60.3984C152.456 60.3554 152.35 60.3351 152.237 60.3351Z" fill="#00C194"></path><path fill-rule="evenodd" clip-rule="evenodd" d="M79.4796 70.3297V49.506L89.6215 43.4727V24.9903L113.143 11V31.9817L123.285 38.0149V70.3297H120.047V39.8499L113.143 35.7429V70.3297H109.905V33.8167L103.001 29.7097V35.5108V70.3272H99.7636V41.2007L92.8591 45.3077V70.3297H89.6215V47.234L82.7171 51.3409V70.3297H79.4796ZM92.8591 41.5465L99.7636 37.4395V24.0222L109.905 30.0554V16.6875L92.8591 26.8277V41.5465Z" fill="#00C194"></path></g><defs><clipPath><rect width="149" height="95.9816" fill="white" transform="translate(25 11)"></rect></clipPath></defs></svg>