<svg xmlns="http://www.w3.org/2000/svg" width="54" height="58" viewBox="0 0 54 58" fill="none"><path d="M36.1 14H5.5C5 14 4.6 13.6 4.6 13.1V6.2C4.6 5.7 5 5.3 5.5 5.3H36C36.5 5.3 36.9 5.7 36.9 6.2V13.1C37 13.6 36.6 14 36.1 14ZM6.5 12.1H35.2V7.1H6.5V12.1Z" fill="#00C194"></path><path d="M13 22.2H5.2C4.7 22.2 4.3 21.8 4.3 21.3V17.6C4.3 17.1 4.7 16.7 5.2 16.7H13C13.5 16.7 13.9 17.1 13.9 17.6V21.3C14 21.8 13.5 22.2 13 22.2ZM6.1 20.4H12.1V18.5H6.1V20.4Z" fill="#00C194"></path><path d="M24.7 22.2H16.9C16.4 22.2 16 21.8 16 21.3V17.6C16 17.1 16.4 16.7 16.9 16.7H24.7C25.2 16.7 25.6 17.1 25.6 17.6V21.3C25.7 21.8 25.2 22.2 24.7 22.2ZM17.8 20.4H23.8V18.5H17.8V20.4Z" fill="#00C194"></path><path d="M36.4 22.2H28.6C28.1 22.2 27.7 21.8 27.7 21.3V17.6C27.7 17.1 28.1 16.7 28.6 16.7H36.4C36.9 16.7 37.3 17.1 37.3 17.6V21.3C37.3 21.8 36.9 22.2 36.4 22.2ZM29.5 20.4H35.5V18.5H29.5V20.4Z" fill="#00C194"></path><path d="M10.4 32.8H5.2C4.7 32.8 4.3 32.4 4.3 31.9V26.7C4.3 26.2 4.7 25.8 5.2 25.8H10.4C10.9 25.8 11.3 26.2 11.3 26.7V31.9C11.3 32.3 10.9 32.8 10.4 32.8ZM6.1 30.9H9.4V27.5H6.1V30.9Z" fill="#00C194"></path><path d="M19.1 32.8H13.9C13.4 32.8 13 32.4 13 31.9V26.7C13 26.2 13.4 25.8 13.9 25.8H19.1C19.6 25.8 20 26.2 20 26.7V31.9C20 32.3 19.6 32.8 19.1 32.8ZM14.8 30.9H18.1V27.5H14.8V30.9Z" fill="#00C194"></path><path d="M27.7 32.8H22.5C22 32.8 21.6 32.4 21.6 31.9V26.7C21.6 26.2 22 25.8 22.5 25.8H27.7C28.2 25.8 28.6 26.2 28.6 26.7V31.9C28.7 32.3 28.3 32.8 27.7 32.8ZM23.5 30.9H26.8V27.5H23.5V30.9Z" fill="#00C194"></path><path d="M10.4 41.2H5.2C4.7 41.2 4.3 40.8 4.3 40.3V35C4.3 34.5 4.7 34.1 5.2 34.1H10.4C10.9 34.1 11.3 34.5 11.3 35V40.2C11.3 40.7 10.9 41.2 10.4 41.2ZM6.1 39.3H9.4V35.9H6.1V39.3Z" fill="#00C194"></path><path d="M19.1 41.2H13.9C13.4 41.2 13 40.8 13 40.3V35C13 34.5 13.4 34.1 13.9 34.1H19.1C19.6 34.1 20 34.5 20 35V40.2C20 40.7 19.6 41.2 19.1 41.2ZM14.8 39.3H18.1V35.9H14.8V39.3Z" fill="#00C194"></path><path d="M10.4 49.6H5.2C4.7 49.6 4.3 49.2 4.3 48.7V43.5C4.3 43 4.7 42.6 5.2 42.6H10.4C10.9 42.6 11.3 43 11.3 43.5V48.7C11.3 49.1 10.9 49.6 10.4 49.6ZM6.1 47.7H9.4V44.3H6.1V47.7Z" fill="#00C194"></path><path d="M19.1 49.6H13.9C13.4 49.6 13 49.2 13 48.7V43.5C13 43 13.4 42.6 13.9 42.6H19.1C19.6 42.6 20 43 20 43.5V48.7C20 49.1 19.6 49.6 19.1 49.6ZM14.8 47.7H18.1V44.3H14.8V47.7Z" fill="#00C194"></path><path d="M31.2 54.8H3.2C1.4 54.8 0 53.4 0 51.6V3.2C0 1.4 1.4 0 3.2 0H38.4C40.2 0 41.6 1.4 41.6 3.2V28.8C41.6 29.1 41.5 29.3 41.3 29.5C41.1 29.7 40.8 29.8 40.6 29.7C39.9 29.6 39.4 29.6 38.9 29.6C31.8 29.6 26.1 35.4 26.1 42.4C26.1 46.7 28.2 50.7 31.8 53.1C32.1 53.3 32.3 53.8 32.2 54.1C32.1 54.4 31.6 54.8 31.2 54.8ZM3.2 1.9C2.5 1.9 1.9 2.5 1.9 3.2V51.6C1.9 52.3 2.5 52.9 3.2 52.9H28.5C25.7 50.2 24.1 46.4 24.1 42.4C24.1 34.3 30.7 27.7 38.8 27.7C39.1 27.7 39.4 27.7 39.7 27.7V3.2C39.7 2.5 39.1 1.9 38.4 1.9H3.2Z" fill="#00C194"></path><path d="M31.2 31.9C31 31.9 30.9 31.9 30.8 31.8C30.5 31.6 30.3 31.3 30.3 31V26.6C30.3 26.1 30.7 25.7 31.2 25.7H36.4C36.9 25.7 37.3 26.1 37.3 26.6V28.9C37.3 29.4 37 29.7 36.5 29.8C34.8 30.1 33.1 30.8 31.7 31.7C31.6 31.8 31.4 31.9 31.2 31.9ZM32.2 27.5V29.3C33.2 28.8 34.4 28.4 35.5 28.1V27.5H32.2Z" fill="#00C194"></path><path d="M25.3 41.2H22.6C22.1 41.2 21.7 40.8 21.7 40.3V35C21.7 34.5 22.1 34.1 22.6 34.1H27.3C27.6 34.1 28 34.3 28.1 34.6C28.3 34.9 28.2 35.3 28.1 35.6C27.1 37.1 26.5 38.7 26.2 40.5C26.1 40.8 25.7 41.2 25.3 41.2ZM23.5 39.3H24.5C24.8 38.1 25.2 37 25.7 35.9H23.5V39.3Z" fill="#00C194"></path><path d="M26.5 49.6H22.5C22 49.6 21.6 49.2 21.6 48.7V43.5C21.6 43 22 42.6 22.5 42.6H25.1C25.6 42.6 26 43 26 43.5C26.1 45.2 26.6 46.9 27.3 48.4C27.4 48.7 27.4 49 27.3 49.3C27.2 49.4 26.9 49.6 26.5 49.6ZM23.5 47.7H25.1C24.7 46.6 24.4 45.5 24.3 44.3H23.5V47.7Z" fill="#00C194"></path><path d="M38.8 57.1C30.7 57.1 24.1 50.5 24.1 42.4C24.1 34.3 30.7 27.7 38.8 27.7C40.3 27.7 41.8 27.9 43.2 28.4C43.7 28.6 44 29.1 43.8 29.6C43.6 30.1 43.1 30.4 42.6 30.2C41.3 29.8 40 29.6 38.7 29.6C31.6 29.6 25.9 35.4 25.9 42.4C25.9 49.4 31.7 55.2 38.7 55.2C44.2 55.2 49.1 51.7 50.9 46.5C51.1 46 51.6 45.7 52.1 45.9C52.6 46.1 52.8 46.6 52.7 47.1C50.7 53.1 45.1 57.1 38.8 57.1Z" fill="#00C194"></path><path d="M44.7 30.9C44.6 30.9 44.4 30.9 44.3 30.8C43.8 30.6 43.2 30.3 42.7 30.2C42.2 30 41.9 29.5 42.1 29C42.3 28.5 42.8 28.2 43.3 28.4C43.9 28.6 44.6 28.8 45.2 29.1C45.7 29.3 45.9 29.9 45.6 30.3C45.4 30.7 45.1 30.9 44.7 30.9Z" fill="#00C194"></path><path d="M52.5 42.4C52 42.4 51.6 42 51.6 41.5C51.5 40.4 51.3 39.3 50.9 38.2C50.7 37.7 51 37.2 51.5 37C52 36.8 52.5 37.1 52.7 37.6C53.1 38.8 53.4 40.1 53.5 41.4C53.5 41.9 53.1 42.3 52.5 42.4C52.6 42.4 52.6 42.4 52.5 42.4ZM50.2 35.6C49.9 35.6 49.6 35.5 49.4 35.2C48.8 34.3 48 33.4 47.1 32.7C46.7 32.4 46.7 31.8 47 31.4C47.3 31 47.9 31 48.3 31.3C49.3 32.1 50.2 33.1 50.9 34.2C51.2 34.6 51.1 35.2 50.7 35.5C50.5 35.5 50.4 35.6 50.2 35.6Z" fill="#00C194"></path><path d="M51.9 47.8C51.8 47.8 51.7 47.8 51.6 47.8C51.1 47.6 50.9 47.1 51 46.6C51.2 46.1 51.3 45.5 51.4 44.9C51.5 44.4 52 44.1 52.5 44.2C53 44.3 53.3 44.8 53.2 45.3C53.1 46 52.9 46.6 52.7 47.2C52.6 47.5 52.3 47.8 51.9 47.8Z" fill="#00C194"></path><path d="M38.8 51.2C36 51.2 33.7 49 33.7 46.4C33.7 45.9 34.1 45.5 34.6 45.5C35.1 45.5 35.5 45.9 35.5 46.4C35.5 48 37 49.4 38.8 49.4C40.6 49.4 42.1 48.1 42.1 46.4C42.1 44.8 40.6 43.4 38.8 43.4C36 43.4 33.7 41.2 33.7 38.6C33.7 36 36 33.8 38.8 33.8C41.6 33.8 43.9 36 43.9 38.6C43.9 39.1 43.5 39.5 43 39.5C42.5 39.5 42.1 39.1 42.1 38.6C42.1 37 40.6 35.6 38.8 35.6C37 35.6 35.5 36.9 35.5 38.6C35.5 40.2 37 41.6 38.8 41.6C41.6 41.6 43.9 43.8 43.9 46.4C43.9 49 41.7 51.2 38.8 51.2Z" fill="#00C194"></path><path d="M38.8 52.8C38.3 52.8 37.9 52.4 37.9 51.9V33C37.9 32.5 38.3 32.1 38.8 32.1C39.3 32.1 39.7 32.5 39.7 33V51.8C39.8 52.4 39.3 52.8 38.8 52.8Z" fill="#00C194"></path></svg>