<svg xmlns="http://www.w3.org/2000/svg" width="56" height="63" viewBox="0 0 56 63" fill="none"><g clip-path="url(#clip0)"><path d="M54.5 27.6C54.3 27.6 54.2 27.6 54 27.5L27.7 10.8L1.4 27.5C1.1 27.7 0.7 27.7 0.5 27.5C0.2 27.3 0 27 0 26.7V18.2C0 17.9 0.2 17.6 0.4 17.4L27.2 0.099997C27.5 -0.100003 27.9 -0.100003 28.2 0.099997L55 17.4C55.3 17.6 55.4 17.9 55.4 18.2V26.7C55.4 27 55.2 27.4 54.9 27.5C54.8 27.6 54.6 27.6 54.5 27.6ZM27.7 8.7C27.9 8.7 28 8.7 28.2 8.8L53.5 25V18.7L27.7 2L1.9 18.7V25L27.2 8.9C27.4 8.8 27.5 8.7 27.7 8.7Z" fill="#00C194"></path><path d="M27.7 59C22.1 59 17.6 54.7 17.6 49.5C17.6 49 18 48.6 18.5 48.6C19 48.6 19.4 49 19.4 49.5C19.4 53.7 23.1 57.1 27.6 57.1C32.1 57.1 35.8 53.7 35.8 49.5C35.8 45.3 32.1 41.9 27.6 41.9C22 41.9 17.5 37.6 17.5 32.4C17.5 27.2 22 22.9 27.6 22.9C33.2 22.9 37.7 27.2 37.7 32.4C37.7 32.9 37.3 33.3 36.8 33.3C36.3 33.3 35.9 32.9 35.9 32.4C35.9 28.2 32.2 24.8 27.7 24.8C23.2 24.8 19.5 28.2 19.5 32.4C19.5 36.6 23.2 40 27.7 40C33.3 40 37.8 44.3 37.8 49.5C37.8 54.8 33.3 59 27.7 59Z" fill="#00C194"></path><path d="M25.1 62.5C24.6 62.5 24.2 62.1 24.2 61.6V20.4C24.2 19.9 24.6 19.5 25.1 19.5C25.6 19.5 26 19.9 26 20.4V61.6C26 62.1 25.6 62.5 25.1 62.5Z" fill="#00C194"></path><path d="M30.3 62.5C29.8 62.5 29.4 62.1 29.4 61.6V20.4C29.4 19.9 29.8 19.5 30.3 19.5C30.8 19.5 31.2 19.9 31.2 20.4V61.6C31.2 62.1 30.8 62.5 30.3 62.5Z" fill="#00C194"></path></g><defs><clipPath><rect width="56" height="63" fill="white"></rect></clipPath></defs></svg>