<svg xmlns="http://www.w3.org/2000/svg" width="62" height="54" viewBox="0 0 62 54" fill="none"><path d="M42.2 38.2H30.3C29.8 38.2 29.4 37.8 29.4 37.3C29.4 36.8 29.8 36.4 30.3 36.4H42.2C42.7 36.4 43.1 36.8 43.1 37.3C43.1 37.8 42.7 38.2 42.2 38.2Z" fill="#00C194"></path><path d="M10.3 37.3C9.79999 37.3 9.39999 36.9 9.39999 36.4V34.1C9.39999 33.6 9.79999 33.2 10.3 33.2C10.8 33.2 11.2 33.6 11.2 34.1V36.4C11.3 36.9 10.8 37.3 10.3 37.3Z" fill="#00C194"></path><path d="M10.3 49.8C9.79999 49.8 9.39999 49.4 9.39999 48.9V36.4C9.39999 35.9 9.79999 35.5 10.3 35.5C10.8 35.5 11.2 35.9 11.2 36.4V48.9C11.3 49.3 10.8 49.8 10.3 49.8Z" fill="#00C194"></path><path d="M10.3 53.1H1.1C0.5 53.1 0 52.6 0 52V28.4C0 27.8 0.5 27.3 1.1 27.3H10.3C10.8 27.3 11.2 27.7 11.2 28.2V32.7L20.5 29.4C22.4 28.7 24.5 28.6 26.5 29.1L38.5 30.7C41.9 31.4 42.2 34.6 41.9 36.2C41.9 36.3 41.9 36.3 41.9 36.4C42 36.5 42 36.4 42 36.4L55 28.4C55.6 28 56.3 27.7 57.1 27.6C58.4 27.3 59.8 27.8 60.7 28.8C61.6 29.8 61.9 31.2 61.5 32.5C61.1 33.7 60.5 34.8 59.7 35.8C59.1 36.6 58.4 37.2 57.7 37.8C57.5 38 57.3 38.2 57 38.4C56.4 38.9 55.8 39.5 55.1 39.9L43.4 48.3C41.9 49.4 40.1 49.9 38.3 49.9H11.3V52.3C11.3 52.7 10.8 53.1 10.3 53.1ZM1.9 51.2H9.4V48.8C9.4 48.3 9.8 47.9 10.3 47.9H38.5C40 47.9 41.3 47.5 42.5 46.6L54.2 38.2C54.8 37.8 55.3 37.3 55.9 36.8C56.1 36.6 56.4 36.4 56.6 36.2C57.2 35.6 57.9 35.1 58.4 34.4C59 33.6 59.5 32.7 59.8 31.8C60 31.1 59.8 30.4 59.4 29.9C58.9 29.4 58.3 29.2 57.6 29.3C57.1 29.4 56.6 29.6 56.2 29.9L43.2 37.9C42.5 38.3 41.6 38.3 41 37.8C40.3 37.3 40 36.5 40.2 35.7C40.2 35.4 40.6 32.9 38.3 32.4L26.3 30.8H26.2C24.5 30.4 22.8 30.5 21.2 31.1L10.6 35C10.3 35.1 10 35.1 9.7 34.9C9.5 34.7 9.3 34.4 9.3 34.1V29.2H1.9V51.2Z" fill="#00C194"></path><path d="M5.60001 38.5C4.20001 38.5 3.10001 37.4 3.10001 36C3.10001 34.6 4.20001 33.5 5.60001 33.5C7.00001 33.5 8.10001 34.6 8.10001 36C8.10001 37.4 7.00001 38.5 5.60001 38.5ZM5.60001 35.4C5.30001 35.4 5.00001 35.7 5.00001 36C5.00001 36.3 5.30001 36.6 5.60001 36.6C5.90001 36.6 6.20001 36.3 6.20001 36C6.20001 35.7 6.00001 35.4 5.60001 35.4Z" fill="#00C194"></path><path d="M29.5 9.5C28.4 9.5 27.4 9.1 26.6 8.4C24.9 6.7 25.1 3.7 27.1 1.7C29.1 -0.3 32.1 -0.5 33.8 1.2C34.6 2 35 3.2 34.9 4.5C34.8 5.7 34.2 6.9 33.2 7.9C32.2 8.9 30.8 9.5 29.5 9.5ZM31 1.9C30.2 1.9 29.2 2.3 28.5 3C27.2 4.3 27 6.1 28 7.1C29 8.1 30.8 7.8 32.1 6.6C32.7 6 33.1 5.2 33.2 4.4C33.3 3.7 33.1 3 32.6 2.6C32.1 2.1 31.6 1.9 31 1.9Z" fill="#00C194"></path><path d="M35.2 25.6C34.1 25.6 33.1 25.2 32.3 24.5C30.6 22.8 30.8 19.8 32.8 17.8C34.8 15.8 37.8 15.6 39.5 17.3C40.4 18.1 40.7 19.3 40.6 20.6C40.6 21.8 40 23 39 23.9C37.9 25 36.5 25.6 35.2 25.6ZM36.7 17.9C35.9 17.9 34.9 18.3 34.2 19C32.9 20.3 32.7 22.1 33.7 23.1C34.7 24.1 36.5 23.8 37.8 22.6C38.4 22 38.8 21.2 38.9 20.4C39 19.7 38.8 19 38.3 18.6C37.9 18.1 37.3 17.9 36.7 17.9Z" fill="#00C194"></path><path d="M25.2 21.7C25 21.7 24.7 21.6 24.5 21.4C24.1 21 24.1 20.4 24.5 20.1L40.4 4.2C40.8 3.8 41.4 3.8 41.7 4.2C42.1 4.6 42.1 5.2 41.7 5.5L25.8 21.4C25.6 21.6 25.4 21.7 25.2 21.7Z" fill="#00C194"></path></svg>